<?xml version="1.0" encoding="UTF-8"?>
<svg width="120px" height="52px" viewBox="0 0 120 52" version="1.1" xmlns="http://www.w3.org/2000/svg" xmlns:xlink="http://www.w3.org/1999/xlink">
    <!-- Generator: Sketch 48.1 (47250) - http://www.bohemiancoding.com/sketch -->
    <title>logo</title>
    <desc>Created with Sketch.</desc>
    <defs></defs>
    <g id="matiseSymbols" stroke="none" stroke-width="1" fill="none" fill-rule="evenodd">
        <g id="logo" fill="#FFFFFF" fill-rule="nonzero">
            <g transform="translate(20.000000, 20.000000)" id="Shape">
                <polygon points="0 11.8 0 0.4 0.7 0.2 5.4 5.8 10.1 0.2 10.8 0.4 10.8 11.8 8.3 11.8 8.3 6.3 5.6 9.7 5.3 9.7 2.6 6.3 2.6 11.7 0 11.7"></polygon>
                <path d="M15.8,11.8 L21,0.2 L21.9,0.2 L27,11.8 L24.1,11.8 L23.5,10.4 L19.3,10.4 L18.7,11.8 L15.8,11.8 Z M20.3,8.2 L22.6,8.2 L21.5,5.4 L20.3,8.2 Z"></path>
                <polygon points="38.4 2.6 35.5 2.6 35.5 11.7 32.9 11.7 32.9 2.6 30 2.6 30 0.4 38.5 0.4 38.5 2.6"></polygon>
                <polygon points="43.9 0.4 46.5 0.4 46.5 11.8 43.9 11.8"></polygon>
                <path d="M59.2,3.4 C58.5,3 57.5,2.6 56.7,2.6 C55.8,2.6 55.1,2.9 55.1,3.5 C55.1,4.1 55.9,4.5 57,4.9 C59.8,6 60.4,7.3 60.3,8.6 C60.2,10.7 58.4,11.9 56.1,11.9 C54.5,11.9 52.9,11.1 52.3,10.5 L53.3,8.4 C53.9,9 55,9.6 56,9.6 C56.8,9.6 57.7,9.4 57.7,8.7 C57.7,7.9 56.3,7.6 55.2,7 C53.5,6.2 52.5,5.1 52.5,3.4 C52.5,1.7 54,0 56.5,0 C57.9,0 59.5,0.7 60,1 L59.2,3.4 Z"></path>
                <polygon points="73.3 9.5 73.3 11.7 66 11.7 66 0.4 73.1 0.4 73.1 2.6 68.6 2.6 68.6 4.8 72.4 4.8 72.4 7.1 68.6 7.1 68.6 9.4 73.3 9.4"></polygon>
                <path d="M78.5,8.9 C79.3,8.9 80,9.6 80,10.4 C80,11.3 79.3,11.9 78.5,11.9 C77.7,11.9 77,11.3 77,10.4 C77,9.6 77.7,8.9 78.5,8.9 Z"></path>
            </g>
        </g>
    </g>
</svg>