<?xml version="1.0" encoding="UTF-8"?>
<svg width="16px" height="16px" viewBox="0 0 16 16" version="1.1" xmlns="http://www.w3.org/2000/svg" xmlns:xlink="http://www.w3.org/1999/xlink">
    <!-- Generator: Sketch 49.1 (51147) - http://www.bohemiancoding.com/sketch -->
    <title>fullscreen</title>
    <desc>Created with Sketch.</desc>
    <defs></defs>
    <g id="animations" stroke="none" stroke-width="1" fill="none" fill-rule="evenodd">
        <g id="1920matise.caseBBB-browser-video:clicked" transform="translate(-1520.000000, -1012.000000)" fill="#FFFFFF">
            <g id="fullscreen" transform="translate(1520.000000, 1012.000000)">
                <path d="M14,16 L10,16 L10,14 L14,14 L14,10 L16,10 L16,16 L14,16 Z" id="corner"></path>
                <path d="M14,6 L10,6 L10,4 L14,4 L14,0 L16,0 L16,6 L14,6 Z" id="corner" transform="translate(13.000000, 3.000000) rotate(-90.000000) translate(-13.000000, -3.000000) "></path>
                <path d="M4,6 L0,6 L0,4 L4,4 L4,0 L6,0 L6,6 L4,6 Z" id="corner" transform="translate(3.000000, 3.000000) rotate(-180.000000) translate(-3.000000, -3.000000) "></path>
                <path d="M4,16 L0,16 L0,14 L4,14 L4,10 L6,10 L6,16 L4,16 Z" id="corner" transform="translate(3.000000, 13.000000) rotate(-270.000000) translate(-3.000000, -13.000000) "></path>
            </g>
        </g>
    </g>
</svg>